# xmcd CD database file
# Copyright (C) 1997 Ti Kan
# 
# Track frame offsets:
#     150
#     13125
#     32330
#     46800
#     63147
#     73427
#     98185
#     111900
#     129507
#     143255
#     160640
#     174160
# 
# Disc length: 2479 seconds
# 
# Revision: 1
# Processed by: cddbd v1.4b41PL1 Copyright (c) Steve Scherf et al.
# Submitted via: DiscPlay 4.0.3
# 
DISCID=9209ad0c
DTITLE=Mississippi Blues Band - Cara Y Seca
DYEAR=1900
DGENRE=
TTITLE0=Vamo Y Vamo
TTITLE1=San Cayetano
TTITLE2=Ni o Bien
TTITLE3=Celda Gris
TTITLE4=Taxi Taxi
TTITLE5=Blues Al Anochecer
TTITLE6=La Danza De La Lluvia
TTITLE7=Obrero Del Amor
TTITLE8=Reina De Coraz n
TTITLE9=Hotel La Gallega
TTITLE10=Jazz Y Caipirinha
TTITLE11=Buenas Noches
EXTD=
EXTT0=
EXTT1=
EXTT2=
EXTT3=
EXTT4=
EXTT5=
EXTT6=
EXTT7=
EXTT8=
EXTT9=
EXTT10=
EXTT11=
PLAYORDER=
